<?xml version="1.0" encoding="utf-8"?>
<!-- Generator: Adobe Illustrator 27.2.0, SVG Export Plug-In . SVG Version: 6.00 Build 0)  -->
<svg version="1.1" id="_x32_" xmlns="http://www.w3.org/2000/svg" xmlns:xlink="http://www.w3.org/1999/xlink" x="0px" y="0px"
	 viewBox="0 0 512 512" style="enable-background:new 0 0 512 512;" xml:space="preserve">
<style type="text/css">
	.st0{fill:#2C88C6;}
</style>
<g>
	<path class="st0" d="M473.6,63.2L276.2,2.9C269.8,1,263,0,256,0c-7,0-13.8,1-20.2,2.9L38.4,63.2c-3.5,1.1-5.7,3.5-5.7,6.3
		c0,2.7,2.2,5.2,5.7,6.2l91.4,27.9v77.2c0,39.9,13.6,78.3,38.2,108c11.8,14.3,25.5,25.6,40.5,33.6c15.9,8.6,32.5,12.9,49.1,12.9
		c16.6,0,33.2-4.3,49.1-12.9c22.6-12.1,42-31.6,56.2-56.4c14.7-25.7,22.5-55.2,22.5-85.2v-78.2l45.2-13.8v64.2
		c-6.2,0.8-11,6.1-11,12.5c0,5.6,3.6,10.4,8.9,12l-9.6,63.3c-0.2,1.6,0.2,3.2,1.3,4.4c1,1.2,2.6,1.9,4.1,1.9h36.3
		c1.6,0,3.1-0.7,4.1-1.9c1-1.2,1.5-2.8,1.3-4.4l-9.6-63.3c5.2-1.6,8.9-6.4,8.9-12c0-6.4-4.8-11.7-11-12.5V81.5l19.3-5.9
		c3.5-1.1,5.7-3.5,5.7-6.2C479.3,66.7,477.1,64.2,473.6,63.2z M257.6,297.9c-10.4,0-21-2.8-31.4-8.5c-16.2-8.6-30.9-23.6-41.4-42
		c-4.9-8.5-8.8-17.7-11.7-27.4c60.9-10.8,98.5-49.4,119.7-81c10.2,20.8,27.7,46.8,54.2,58.6c-3.1,25-13.2,48.8-28.5,67.2
		c-8.6,10.4-18.8,18.9-29.4,24.6C278.6,295,268,297.9,257.6,297.9z"/>
	<path class="st0" d="M373.8,314.2l-1-0.6l-110.5,97.3l-110.5-97.3l-1,0.6c-36.9,23-76,85.7-76,156.3v1l0.8,0.5
		c0.8,0.4,76.9,40,186.7,40c109.8,0,186-39.6,186.7-40l0.8-0.5v-1C449.8,399.9,410.6,337.3,373.8,314.2z"/>
</g>
</svg>
