<?xml version="1.0" encoding="utf-8"?>
<!-- Generator: Adobe Illustrator 27.2.0, SVG Export Plug-In . SVG Version: 6.00 Build 0)  -->
<svg version="1.1" id="_x32_" xmlns="http://www.w3.org/2000/svg" xmlns:xlink="http://www.w3.org/1999/xlink" x="0px" y="0px"
	 viewBox="0 0 512 512" style="enable-background:new 0 0 512 512;" xml:space="preserve">
<style type="text/css">
	.st0{fill:#D8BB41;}
</style>
<g>
	<path class="st0" d="M284.8,248.4c-14.8,10.4-32.8,16.5-52.2,16.5c-19.4,0-37.4-6.1-52.2-16.5c-25.9,11.1-41.8,30.7-51.5,47.9
		c-12.9,22.9-2.8,55.3,19.5,55.3c22.3,0,84.2,0,84.2,0s61.9,0,84.2,0c22.3,0,32.4-32.4,19.5-55.3
		C326.6,279.1,310.7,259.5,284.8,248.4z"/>
	<path class="st0" d="M232.6,243.2c38,0,68.9-30.8,68.9-68.9v-16.5c0-38-30.8-68.9-68.9-68.9s-68.9,30.8-68.9,68.9v16.5
		C163.8,212.4,194.6,243.2,232.6,243.2z"/>
	<path class="st0" d="M497.3,441.9L421.5,368c65.3-90.8,57.1-218.4-24.5-300c-90.7-90.7-238.2-90.7-328.8,0
		c-90.7,90.7-90.7,238.2,0,328.9c81.6,81.6,209.2,89.7,300.1,24.4l73.9,75.8c15.6,18.9,38.7,20,56.6,2.1
		C516.6,481.4,516.2,457.6,497.3,441.9z M100.5,364.6c-73-73-73-191.3,0-264.3c73-73,191.3-73,264.3,0c73,73,73,191.3,0,264.3
		C291.8,437.5,173.4,437.5,100.5,364.6z"/>
</g>
</svg>
