<?xml version="1.0" encoding="utf-8"?>
<!-- Generator: Adobe Illustrator 27.2.0, SVG Export Plug-In . SVG Version: 6.00 Build 0)  -->
<svg version="1.1" id="_x32_" xmlns="http://www.w3.org/2000/svg" xmlns:xlink="http://www.w3.org/1999/xlink" x="0px" y="0px"
	 viewBox="0 0 512 512" style="enable-background:new 0 0 512 512;" xml:space="preserve">
<style type="text/css">
	.st0{fill:#E567AA;}
</style>
<g>
	<path class="st0" d="M486.3,196C482.2,87.1,392.6,0,282.7,0C170.1,0,78.9,91.2,78.9,203.8C63.7,233,27.2,307.3,27.2,307.3
		c-2.8,5.6-2.9,12.1-0.3,17.8c2.6,5.7,7.7,9.9,13.7,11.4l33.3,8.3c0,0,17,76.6,20.8,94.4c5.9,26.9,14.6,32.8,40,32.8
		s55.6-8.3,55.6-8.3V512h218.4v-76.4c0-27.7,7.6-62.4,29.1-88.3C481.2,295.1,489.6,239.2,486.3,196z M282.7,322.7
		c-65.7,0-118.9-53.2-118.9-118.9c0-65.7,53.2-118.9,118.9-118.9c65.7,0,118.9,53.2,118.9,118.9
		C401.6,269.5,348.3,322.7,282.7,322.7z"/>
	<path class="st0" d="M192.9,203.8h89.8V114C233.1,114,192.9,154.2,192.9,203.8z"/>
	<path class="st0" d="M282.7,293.6c49.6,0,89.8-40.2,89.8-89.8h-89.8V293.6z"/>
</g>
</svg>
