<?xml version="1.0" encoding="utf-8"?>
<!-- Generator: Adobe Illustrator 27.2.0, SVG Export Plug-In . SVG Version: 6.00 Build 0)  -->
<svg version="1.1" id="Logo" xmlns="http://www.w3.org/2000/svg" xmlns:xlink="http://www.w3.org/1999/xlink" x="0px" y="0px"
	 viewBox="0 0 500 394" style="enable-background:new 0 0 500 394;" xml:space="preserve">
<style type="text/css">
	.st0{fill:#21BDDB;}
	.st1{fill-rule:evenodd;clip-rule:evenodd;fill:#FFFFFF;}
</style>
<circle class="st0" cx="440.6" cy="82.6" r="59.4"/>
<path class="st1" d="M200,253.1c-3.6-2.3-13.7-15.9-41.8-83c-1.8-4.2-3.4-7.8-4.9-10.9l-5.7-13.8L98.3,26.5H-0.1l49.2,118.8
	l49.2,118.9L143.8,374c0.9,2.1,3.3,3.1,5.4,2.2c1-0.4,1.8-1.2,2.2-2.2l49.5-118.4C201.1,254.7,200.8,253.6,200,253.1z"/>
<path class="st1" d="M384.4,253.1c-3.6-2.3-13.7-15.9-41.8-83c-1.8-4.2-3.4-7.8-4.9-11l-5.7-13.8L282.7,26.5h-98.4l49.2,118.8
	l49.2,118.9L328.2,374c0.9,2.1,3.3,3.1,5.4,2.2c1-0.4,1.8-1.2,2.2-2.2l49.5-118.4C385.5,254.7,385.2,253.6,384.4,253.1z"/>
</svg>
